<?xml version="1.0" encoding="utf-8"?>
<!-- Generator: Adobe Illustrator 23.1.1, SVG Export Plug-In . SVG Version: 6.00 Build 0)  -->
<svg version="1.1" id="Layer_1" xmlns="http://www.w3.org/2000/svg" xmlns:xlink="http://www.w3.org/1999/xlink" x="0px" y="0px"
	 viewBox="0 0 45.3 34.9" style="enable-background:new 0 0 45.3 34.9;" xml:space="preserve">
<style type="text/css">
	.st0{fill:#FFFFFF;}
	.st1{font-family:'ArialMT';}
	.st2{font-size:4.9425px;}
</style>
<g>
	<g>
		<g>
			<text transform="matrix(1 0 0 1 5.4277 24.9789)" class="st0 st1 st2">AB</text>
		</g>
	</g>
	<g>
		<g>
			<text transform="matrix(1 0 0 1 11.8232 24.9789)" class="st0 st1 st2">TA</text>
		</g>
	</g>
	<g>
		<g>
			<text transform="matrix(1 0 0 1 17.3042 24.9789)" class="st0 st1 st2"> </text>
		</g>
	</g>
	<g>
		<g>
			<text transform="matrix(1 0 0 1 18.6787 24.9789)" class="st0 st1 st2">No</text>
		</g>
	</g>
	<g>
		<g>
			<text transform="matrix(1 0 0 1 24.7979 24.9789)" class="st0 st1 st2">.V1712</text>
		</g>
	</g>
	<g>
		<path class="st0" d="M11.4,18c0.2-0.3,0.4-0.8,0.6-1.2h0.9C12.5,17.3,12,17.7,11.4,18 M10.3,18.4v-1.5h0.8
			C10.9,17.4,10.6,18,10.3,18.4L10.3,18.4z M11.1,12.4h-0.8v-1.5C10.6,11.4,10.9,11.9,11.1,12.4 M12.8,12.4H12
			c-0.1-0.4-0.3-0.8-0.6-1.2C12,11.5,12.4,12,12.8,12.4 M12.4,14.2c0-0.3-0.1-0.6-0.1-0.9h1c0.1,0.3,0.2,0.6,0.2,0.9H12.4z
			 M12.4,15.1h1.1c-0.1,0.3-0.1,0.6-0.2,0.9h-1C12.3,15.7,12.3,15.4,12.4,15.1 M10.3,14.2v-0.9h1.1c0.1,0.3,0.1,0.6,0.1,0.9H10.3z
			 M11.4,15.1c0,0.3-0.1,0.6-0.1,0.9h-1.1v-0.9H11.4z M9.7,10c-0.1,0-0.3,0-0.4,0v0.8V19v0.3c0.1,0,0.3,0,0.4,0
			c2.6,0,4.7-2.1,4.7-4.7C14.4,12.1,12.3,10,9.7,10"/>
	</g>
	<g>
		<path class="st0" d="M24.9,15.4h-1.1v2.1h0.9c1,0,1.4-0.4,1.4-1.1C26.1,15.8,25.7,15.4,24.9,15.4 M24.6,12.2h-0.8v2h0.8
			c0.6,0,1.1-0.4,1.1-1C25.6,12.6,25.3,12.2,24.6,12.2 M24.9,18.8h-2.5V11h2.4c1.6,0,2.3,1.1,2.3,2c0,0.8-0.3,1.2-1,1.6l0,0
			c0.9,0.2,1.4,0.8,1.4,1.8C27.6,17.5,26.8,18.8,24.9,18.8"/>
	</g>
</g>
<polygon class="st0" points="33.3,12.2 31.2,12.2 31.2,18.8 29.8,18.8 29.8,12.2 27.6,12.2 27.6,11 33.8,11 "/>
<g>
	<g>
		<path class="st0" d="M18.4,13.9c-0.1-0.4-0.2-0.7-0.3-1l0,0c-0.1,0.3-0.1,0.6-0.3,1l-0.7,1.8H19L18.4,13.9z M20.2,18.8l-0.8-1.9
			h-2.8l-0.7,1.9h-1.4l3-7.8h1.1l3.1,7.8H20.2z"/>
	</g>
	<g>
		<path class="st0" d="M36.1,13.9c-0.1-0.4-0.2-0.7-0.3-1l0,0c-0.1,0.3-0.1,0.6-0.3,1l-0.6,1.8h1.9L36.1,13.9z M38,18.8l-0.8-1.9
			h-2.8l-0.7,1.9h-1.4l3-7.8h1l3.1,7.8H38z"/>
	</g>
	<g>
		<path class="st0" d="M8.9,13.7v-0.3l-2.3-2.3c-0.1,0.1-0.3,0.2-0.3,0.3l2.3,2.3H8.9z"/>
	</g>
	<g>
		<path class="st0" d="M8.9,15.5v0.3l-2.3,2.3c-0.1-0.1-0.3-0.2-0.3-0.3l2.3-2.3C8.6,15.5,8.9,15.5,8.9,15.5z"/>
	</g>
	<g>
		<path class="st0" d="M8.9,14.2H5.1c0,0.1,0,0.3,0,0.4s0,0.3,0,0.4h3.8V14.2z"/>
	</g>
	<g>
		<path class="st0" d="M6,11.8c-0.4,0.6-0.8,1.2-0.9,1.9h2.8L6,11.8z"/>
	</g>
	<g>
		<path class="st0" d="M8.9,12.9V10c-0.7,0.1-1.4,0.4-1.9,0.9L8.9,12.9z"/>
	</g>
	<g>
		<path class="st0" d="M6.9,18.4c0.6,0.4,1.2,0.8,1.9,0.9v-2.8L6.9,18.4z"/>
	</g>
	<g>
		<path class="st0" d="M8,15.5H5.2c0.1,0.7,0.4,1.4,0.9,1.9L8,15.5z"/>
	</g>
</g>
</svg>
