<?xml version="1.0" encoding="utf-8"?>
<!-- Generator: Adobe Illustrator 23.1.1, SVG Export Plug-In . SVG Version: 6.00 Build 0)  -->
<svg version="1.1" id="Layer_1" xmlns="http://www.w3.org/2000/svg" xmlns:xlink="http://www.w3.org/1999/xlink" x="0px" y="0px"
	 viewBox="0 0 33 34.9" style="enable-background:new 0 0 33 34.9;" xml:space="preserve">
<style type="text/css">
	.st0{fill:#FFFFFF;}
</style>
<g>
	<g>
		<path class="st0" d="M21.2,19.1c0,0-2.7,0-4.1-2.7c-1.9-3.7,2-5.7,2-5.7l3.4,0.6L21.2,19.1z"/>
	</g>
	<g>
		<path class="st0" d="M5.1,15.4C4,21.8,8.3,27.9,14.6,29s12.5-3.2,13.6-9.5c0.1-0.7,0.2-1.4,0.2-2.1c0-5.6-4-10.5-9.7-11.6
			C12.3,4.7,6.2,9,5.1,15.4 M14.7,28.2c-5.9-1-9.9-6.8-8.9-12.7c1-6,6.8-10,12.7-9c6,1,10,6.8,8.9,12.8
			C26.4,25.3,20.7,29.3,14.7,28.2"/>
	</g>
	<g>
		<path class="st0" d="M6.6,20c0-0.1,0-0.2-0.1-0.3c0-0.1-0.1-0.1-0.1-0.3l2.4-0.6L9,19.6c0.1,0.5,0,0.8-0.4,0.9
			c-0.6,0.1-0.9-0.3-1-0.9L6.6,20z M7.8,19.6c0,0.1,0.1,0.1,0.1,0.2C8,20,8.2,20,8.5,20c0.3-0.1,0.4-0.3,0.3-0.5l-0.1-0.2L7.8,19.6z
			"/>
	</g>
	<g>
		<path class="st0" d="M9.4,20.7l0.4,0.7c0.1,0.1,0.2,0.3,0.2,0.5s-0.1,0.4-0.3,0.6c-0.3,0.2-0.6,0.1-0.8-0.1
			c-0.3,0.3-0.4,0.7-0.6,1l-0.1,0.2c-0.1-0.1-0.1-0.2-0.1-0.3C8,23.2,8,23.1,7.9,23l0.4-0.8c0.1-0.1,0.1-0.3,0.2-0.4l0,0l-1,0.6
			c-0.1-0.1-0.1-0.1-0.1-0.3c0,0,0-0.1-0.1-0.1L9.4,20.7z M8.7,21.7c0.1,0.3,0.4,0.4,0.8,0.2c0.1,0,0.1-0.1,0.1-0.1
			c0.2-0.2,0.1-0.4-0.1-0.6L8.7,21.7z"/>
	</g>
	<g>
		<path class="st0" d="M9.8,25.3c-0.6-0.6-0.7-1.2-0.1-1.9c0.5-0.6,1.2-0.6,1.9-0.1c0.8,0.7,0.6,1.4,0.1,1.9
			C11.2,25.7,10.4,25.8,9.8,25.3 M10,23.9c-0.3,0.3-0.5,0.9-0.1,1.2c0.4,0.3,1,0.1,1.4-0.3c0.3-0.3,0.5-0.9,0.1-1.2
			C11,23.2,10.5,23.3,10,23.9"/>
	</g>
	<g>
		<path class="st0" d="M12.8,27.1C12.7,27,12.7,27,12.6,27c-0.1-0.1-0.1-0.1-0.3-0.1l0.9-2.1c-0.2-0.1-0.5-0.1-0.6-0.2
			c0-0.1,0.1-0.1,0.1-0.1s0-0.1,0.1-0.1l1.7,0.8c0,0.1-0.1,0.1-0.1,0.1s0,0.1-0.1,0.1c-0.2-0.1-0.3-0.2-0.6-0.3L12.8,27.1z"/>
	</g>
	<g>
		<path class="st0" d="M16,25.3c0,0.1-0.1,0.1-0.1,0.1v0.1c-0.2-0.1-0.5-0.1-0.8-0.2L15,26.1l0.3,0.1c0.1,0,0.3,0.1,0.4,0.1
			c0,0.1-0.1,0.1-0.1,0.1v0.1c-0.1-0.1-0.3-0.1-0.4-0.1h-0.3l-0.1,1c0.3,0.1,0.6,0.1,0.8,0.1c0,0.1-0.1,0.1-0.1,0.1
			c0,0.1,0,0.1,0,0.1l-1.4-0.2l0.4-2.4L16,25.3z"/>
	</g>
	<g>
		<path class="st0" d="M18.7,27.3l-0.1,0.3c-0.2,0.1-0.5,0.2-0.7,0.2c-0.8,0.1-1.4-0.3-1.4-1.1c-0.1-1,0.5-1.4,1.3-1.5
			c0.2,0,0.6,0,0.8,0.1c0,0.1,0,0.3-0.1,0.3h-0.1c-0.1-0.2-0.4-0.3-0.6-0.3c-0.6,0.1-0.8,0.6-0.8,1.2c0.1,0.6,0.4,1,1,1
			C18.2,27.5,18.4,27.4,18.7,27.3L18.7,27.3z"/>
	</g>
	<g>
		<path class="st0" d="M20.6,27c-0.1,0-0.2,0.1-0.3,0.1s-0.1,0.1-0.3,0.1l-0.8-2.1c-0.2,0.1-0.4,0.2-0.6,0.3c0-0.1,0-0.1-0.1-0.1
			c0-0.1-0.1-0.1-0.1-0.1l1.7-0.7c0,0.1,0,0.1,0.1,0.1c0,0.1,0.1,0.1,0.1,0.1c-0.2,0.1-0.4,0.1-0.6,0.2L20.6,27z"/>
	</g>
	<g>
		<path class="st0" d="M21.8,23.5c0,0.1,0.1,0.1,0.1,0.1c0,0.1,0.1,0.1,0.1,0.1c-0.2,0.1-0.4,0.2-0.7,0.4l0.4,0.6l0.3-0.2
			c0.1-0.1,0.3-0.2,0.3-0.3c0,0.1,0.1,0.1,0.1,0.1l0.1,0.1c-0.1,0.1-0.3,0.1-0.4,0.2L21.9,25l0.6,0.8c0.3-0.2,0.5-0.3,0.6-0.6
			c0,0.1,0.1,0.1,0.1,0.1c0,0.1,0.1,0.1,0.1,0.1l-1.1,0.8l-1.4-2L21.8,23.5z"/>
	</g>
	<g>
		<path class="st0" d="M22.9,22.2c0.5-0.6,1.1-0.5,1.6-0.1c0.6,0.5,0.7,1.2,0.2,1.9l-0.6,0.8l-1.9-1.5L22.9,22.2z M24.2,24.2
			l0.2-0.2c0.3-0.4,0.3-0.8-0.3-1.4c-0.6-0.4-1-0.3-1.2,0.1L22.7,23L24.2,24.2z"/>
	</g>
	<g>
		<path class="st0" d="M12.8,20l0.3-0.4l0.2,0.5L12.8,20z M13.5,19.3l-0.6-0.1l-1,1l0.5,0.1l0.2-0.2l0.8,0.1l0.1,0.3l0.5,0.1
			L13.5,19.3z M14.4,19.5l-0.1,0.2l0.7,0.1l-0.1,1l0.5,0.1l0.1-1l0.7,0.1l0.1-0.2L14.4,19.5z M16.9,20.8c-0.1-0.1-0.1-0.2-0.1-0.3
			s0.1-0.2,0.2-0.3c0.1-0.1,0.3-0.1,0.5,0c0.2,0,0.3,0.1,0.4,0.2s0.1,0.2,0.1,0.3c0,0.1-0.1,0.2-0.2,0.3c-0.1,0.1-0.3,0.1-0.5,0
			C17.1,21,17,20.9,16.9,20.8 M18.2,20.3c-0.1-0.1-0.4-0.2-0.7-0.3c-0.3-0.1-0.6-0.1-0.8,0c-0.3,0.1-0.4,0.2-0.4,0.4
			c-0.1,0.2,0.1,0.4,0.3,0.6c0.1,0.1,0.4,0.2,0.7,0.3c0.3,0.1,0.6,0.1,0.8,0c0.3-0.1,0.4-0.2,0.4-0.4C18.5,20.6,18.4,20.4,18.2,20.3
			 M18.7,21.5l1.6,0.3l0.1-0.2l-1.1-0.2l0.1-1l-0.5-0.1L18.7,21.5z M14.9,9.9c-1.4,2.6-1.4,5.4,0.8,7.7c2.3,2.3,5.3,2,5.3,2
			l-0.6,3.6l-9.5-1.7L13,9.6L14.9,9.9z"/>
	</g>
	<g>
		<path class="st0" d="M15.2,9c0.1-0.1,0.2-0.2,0.4-0.3l0.3-0.1c0.1-0.1,0.2-0.1,0.3-0.1c0.1-0.1,0.1-0.1,0.1-0.2
			c0-0.1,0-0.2-0.1-0.3c-0.1-0.1-0.1-0.1-0.3-0.1c-0.1,0-0.3,0-0.3,0.1c-0.1,0-0.1,0.1-0.1,0.2l-0.2-0.1c0-0.1,0.1-0.3,0.1-0.3
			c0.1-0.1,0.3-0.2,0.6-0.2c0.2,0.1,0.3,0.1,0.4,0.3c0.1,0.1,0.1,0.3,0.1,0.4c0,0.1-0.1,0.3-0.2,0.3c-0.1,0.1-0.2,0.1-0.3,0.2
			l-0.2,0.1c-0.1,0-0.1,0.1-0.2,0.1c-0.1,0.1-0.1,0.1-0.2,0.2l1,0.2l-0.1,0.2l-1.2-0.2C15.1,9.3,15.1,9.1,15.2,9"/>
	</g>
	<g>
		<path class="st0" d="M17.7,8.6c0.1-0.1,0.1-0.1,0.1-0.2c0-0.1,0-0.1-0.1-0.2c0,0-0.1-0.1-0.2-0.1s-0.2,0-0.3,0.1s-0.1,0.1-0.1,0.2
			c0,0.1,0,0.1,0.1,0.2c0.1,0.1,0.1,0.1,0.2,0.1C17.5,8.7,17.6,8.7,17.7,8.6 M17.6,9.6c0.1-0.1,0.1-0.1,0.1-0.3c0-0.1,0-0.2-0.1-0.3
			s-0.1-0.1-0.3-0.1c-0.1,0-0.2,0-0.3,0.1s-0.1,0.1-0.1,0.3c0,0.1,0,0.2,0.1,0.3s0.1,0.1,0.3,0.1C17.4,9.7,17.5,9.6,17.6,9.6
			 M17,8.6c-0.1,0-0.1-0.2-0.1-0.2c0-0.1,0.1-0.3,0.2-0.3C17.3,8,17.4,7.9,17.6,8c0.2,0,0.3,0,0.4,0.2c0.1,0.1,0.1,0.2,0.1,0.3
			S18,8.7,18,8.8c-0.1,0-0.1,0.1-0.2,0.1c0,0,0.1,0,0.1,0.1C18,9.1,18,9.2,18,9.3s-0.1,0.3-0.2,0.4c-0.1,0.1-0.3,0.1-0.5,0.1
			S17,9.7,16.9,9.6c-0.1-0.1-0.1-0.3-0.1-0.5c0-0.1,0.1-0.2,0.1-0.3c0.1,0,0.1-0.1,0.3-0.1C17.1,8.7,17,8.6,17,8.6"/>
	</g>
	<g>
		<path class="st0" d="M19.3,8.9c0.1-0.1,0.1-0.1,0.1-0.2s0-0.1-0.1-0.2c-0.1-0.1-0.1-0.1-0.2-0.1s-0.2,0-0.3,0.1
			c0.1,0,0.1,0.1,0,0.1c0,0.1,0,0.1,0.1,0.2s0.1,0.1,0.2,0.1C19.1,9,19.3,9,19.3,8.9 M19.2,9.9c0.1-0.1,0.1-0.1,0.1-0.3
			s0-0.2-0.1-0.3s-0.1-0.1-0.3-0.1c-0.1,0-0.2,0-0.3,0.1s-0.1,0.1-0.1,0.3c0,0.1,0,0.2,0.1,0.3s0.2,0.1,0.3,0.1S19.1,9.9,19.2,9.9
			 M18.6,8.9c-0.1-0.1-0.1-0.2-0.1-0.3s0.1-0.3,0.2-0.3c0.1-0.1,0.3-0.1,0.5-0.1s0.3,0.1,0.4,0.2c0.1,0.1,0.1,0.2,0.1,0.3
			S19.6,9,19.5,9.1c-0.1,0-0.1,0.1-0.2,0.1c0.1,0.1,0.1,0.1,0.1,0.1c0.1,0.1,0.1,0.2,0.1,0.3s-0.1,0.3-0.2,0.4
			c-0.1,0.1-0.3,0.1-0.5,0.1s-0.3-0.1-0.4-0.2c-0.1-0.1-0.1-0.3-0.1-0.5c0-0.1,0.1-0.2,0.1-0.3c0.1,0,0.2-0.1,0.3-0.1
			C18.7,9,18.7,8.9,18.6,8.9"/>
	</g>
	<g>
		<path class="st0" d="M20.2,9.8c0,0.1,0.1,0.2,0.1,0.3c0.1,0.1,0.1,0.1,0.2,0.1s0.3,0,0.3-0.1s0.1-0.1,0.1-0.3c0-0.1,0-0.2-0.1-0.3
			s-0.1-0.1-0.3-0.1c-0.1,0-0.1,0-0.2,0s-0.1,0.1-0.1,0.1L20,9.4l0.3-1l1,0.1l-0.1,0.3l-0.8-0.1l-0.1,0.5c0.1,0,0.1-0.1,0.1-0.1
			c0.1,0,0.1,0,0.3,0c0.1,0,0.3,0.1,0.4,0.2c0.1,0.1,0.1,0.3,0.1,0.4c0,0.2-0.1,0.3-0.2,0.4c-0.1,0.1-0.3,0.1-0.6,0.1
			c-0.1,0-0.3-0.1-0.3-0.2C20,9.9,20,9.7,20,9.6L20.2,9.8z"/>
	</g>
</g>
</svg>
