<?xml version="1.0" encoding="utf-8"?>
<!-- Generator: Adobe Illustrator 23.1.1, SVG Export Plug-In . SVG Version: 6.00 Build 0)  -->
<svg version="1.1" id="Layer_1" xmlns="http://www.w3.org/2000/svg" xmlns:xlink="http://www.w3.org/1999/xlink" x="0px" y="0px"
	 viewBox="0 0 34.3 34.9" style="enable-background:new 0 0 34.3 34.9;" xml:space="preserve">
<style type="text/css">
	.st0{fill:#FFFFFF;}
</style>
<g>
	<g>
		<path class="st0" d="M17.4,16.9c0.4-0.3,0.8-0.9,1.1-1.4c-0.3-0.1-0.8-0.2-1.1-0.2V16.9z M17.1,16.9c-0.5-0.3-0.8-0.8-1.1-1.4
			c0.3-0.1,0.8-0.2,1.1-0.2V16.9z M17.4,9.7c0.4,0.3,0.8,0.8,1.1,1.4c-0.3,0.1-0.8,0.2-1.1,0.2V9.7z M17.1,9.7
			c-0.5,0.3-0.8,0.8-1.1,1.4c0.3,0.1,0.8,0.2,1.1,0.2V9.7z M17.4,15.1v-1.6h1.7c0,0.6-0.1,1.2-0.4,1.8
			C18.3,15.1,17.8,15.1,17.4,15.1 M21,13.5h-1.7c0,0.7-0.1,1.3-0.4,1.9c0.3,0.1,0.7,0.3,1,0.6C20.5,15.3,20.9,14.4,21,13.5
			 M19.6,16.2c-0.3-0.2-0.6-0.4-0.9-0.6c-0.3,0.6-0.7,1-1.1,1.4C18.4,17,19.1,16.7,19.6,16.2 M17.1,15.1v-1.6h-1.7
			c0,0.6,0.1,1.2,0.4,1.8C16.3,15.1,16.7,15.1,17.1,15.1 M13.5,13.5h1.7c0,0.7,0.2,1.3,0.4,1.9c-0.3,0.1-0.7,0.3-1,0.6
			C13.9,15.3,13.5,14.4,13.5,13.5 M14.8,16.2c0.3-0.2,0.6-0.5,0.9-0.6c0.3,0.6,0.7,1,1.1,1.4C16.1,17,15.4,16.7,14.8,16.2
			 M17.4,11.6v1.6h1.7c0-0.6-0.1-1.2-0.4-1.9C18.2,11.5,17.8,11.6,17.4,11.6 M21,13.2h-1.7c0-0.7-0.2-1.3-0.4-1.9
			c0.3-0.1,0.7-0.3,1-0.6C20.6,11.3,20.9,12.2,21,13.2 M19.6,10.4c-0.3,0.2-0.6,0.5-0.9,0.6c-0.3-0.6-0.7-1-1.1-1.4
			C18.4,9.7,19.1,10,19.6,10.4 M17.1,11.6v1.6h-1.7c0-0.6,0.1-1.2,0.4-1.9C16.3,11.5,16.7,11.6,17.1,11.6 M13.5,13.2h1.7
			c0-0.7,0.2-1.3,0.4-1.9c-0.3-0.1-0.7-0.3-1-0.6C13.9,11.3,13.5,12.2,13.5,13.2 M14.8,10.4c0.3,0.2,0.6,0.5,0.9,0.6
			c0.3-0.6,0.7-1,1.1-1.4C16.1,9.7,15.4,10,14.8,10.4 M5.2,14.6h7.5c0.3,1.4,1.2,2.6,3.2,3.3c-0.2,0.7-1,1.2-1.7,1.2h-4.1
			c-0.6,0-1.1-0.6-1.3-1h4.1c0.3-0.1,0.3-0.2,0-0.3H8.8c-0.6,0-1-0.5-1.2-1h4.7c0.3-0.1,0.3-0.2,0-0.3H7.5c-0.5,0-0.9-0.6-1.1-1h5.2
			c0.3-0.1,0.3-0.3,0-0.3H6.3C5.9,15.5,5.5,15.1,5.2,14.6 M29.2,14.6h-7.4c-0.3,1.4-1.2,2.6-3.2,3.3c0.2,0.7,1,1.2,1.7,1.2h4.1
			c0.6,0,1.1-0.6,1.3-1h-4.1c-0.3-0.1-0.3-0.2,0-0.3h4.1c0.6,0,1-0.5,1.2-1h-4.7c-0.3-0.1-0.3-0.2,0-0.3H27c0.5,0,0.9-0.6,1.1-1
			h-5.2c-0.3-0.1-0.3-0.3,0-0.3h5.3C28.5,15.5,28.9,15.1,29.2,14.6 M20.8,25.1l2.4-4.9h1.6l1,4.9h-1.5l-0.1-0.6h-1.6l-0.3,0.6H20.8z
			 M23,23.5h1l-0.3-1.8L23,23.5z M17.6,25.1l0.6-3.7h-1.4l0.2-1.2h4.3l-0.2,1.2h-1.3l-0.6,3.7H17.6z M11.2,25.1l2.4-4.9h1.6l1,4.9
			h-1.4l-0.1-0.6h-1.6l-0.3,0.6H11.2z M13.4,23.5h1l-0.3-1.8L13.4,23.5z M8.7,25.1l1-4.9h1.6l-1,4.9H8.7z"/>
	</g>
</g>
</svg>
