<?xml version="1.0" encoding="utf-8"?>
<!-- Generator: Adobe Illustrator 27.1.1, SVG Export Plug-In . SVG Version: 6.00 Build 0)  -->
<svg version="1.1" id="Layer_1" xmlns="http://www.w3.org/2000/svg" xmlns:xlink="http://www.w3.org/1999/xlink" x="0px" y="0px"
	 viewBox="0 0 1075 216" style="enable-background:new 0 0 1075 216;" xml:space="preserve">
<style type="text/css">
	.st0{fill:#FFFFFF;}
</style>
<g>
	<path class="st0" d="M695.1,63.8v-4.3l-26-27.1c-1.5,1.3-2.8,2.8-4.1,4.3L691,63.8H695.1z"/>
	<path class="st0" d="M662.1,40.2c-5,6.8-8.5,14.8-10.1,23.5h32.7L662.1,40.2z"/>
	<path class="st0" d="M695.1,52.9V19c-8.4,1.6-16,5.3-22.6,10.5L695.1,52.9z"/>
	<g>
		<path class="st0" d="M651,199.1l15.8-42.7h5.9l16.8,42.7h-6.2l-4.8-12.9h-17.2l-4.5,12.9H651z M662.8,181.5h13.9l-4.3-11.8
			c-1.3-3.6-2.3-6.5-2.9-8.9c-0.5,2.7-1.3,5.5-2.2,8.2L662.8,181.5z"/>
		<path class="st0" d="M693.5,199.1v-42.7h15.4c3.1,0,5.7,0.4,7.5,1.3c1.9,0.9,3.4,2.2,4.5,4c1.1,1.8,1.6,3.7,1.6,5.6
			c0,1.8-0.5,3.5-1.4,5.2c-1,1.6-2.4,2.9-4.3,3.9c2.5,0.8,4.4,2,5.7,3.9c1.3,1.8,2,4,2,6.5c0,2-0.4,3.9-1.2,5.6c-0.8,1.7-1.8,3-3,4
			c-1.2,0.9-2.7,1.6-4.5,2.1c-1.8,0.5-4,0.7-6.6,0.7H693.5z M698.9,174.3h8.9c2.4,0,4.1-0.2,5.2-0.5c1.4-0.4,2.4-1.1,3.1-2.1
			s1-2.2,1-3.7c0-1.4-0.3-2.7-1-3.7c-0.7-1.1-1.6-1.8-2.8-2.2c-1.2-0.4-3.3-0.6-6.2-0.6h-8.2V174.3z M698.9,194h10.2
			c1.8,0,3-0.1,3.7-0.2c1.2-0.2,2.3-0.6,3.1-1.2s1.5-1.3,2.1-2.4c0.5-1,0.8-2.2,0.8-3.6c0-1.6-0.4-3-1.2-4.2c-0.8-1.2-1.9-2-3.3-2.5
			c-1.4-0.5-3.4-0.7-6-0.7h-9.5V194z"/>
	</g>
	<g>
		<path class="st0" d="M740.1,199.1v-37.7h-13.5v-5h32.5v5h-13.6v37.7H740.1z"/>
		<path class="st0" d="M760.2,199.1l15.8-42.7h5.9l16.8,42.7h-6.2l-4.8-12.9h-17.2l-4.5,12.9H760.2z M772,181.5H786l-4.3-11.8
			c-1.3-3.6-2.3-6.5-2.9-8.9c-0.5,2.7-1.3,5.5-2.2,8.2L772,181.5z"/>
	</g>
	<g>
		<path class="st0" d="M809.2,199.1v-42.7h5.6l21.6,33.5v-33.5h5.2v42.7h-5.6l-21.6-33.6v33.6H809.2z"/>
	</g>
	<g>
		<path class="st0" d="M848.1,183.6c0-5.7,1.5-10,4.6-12.7c2.6-2.3,5.7-3.4,9.4-3.4c4.1,0,7.4,1.4,10,4.2c2.6,2.8,3.9,6.6,3.9,11.5
			c0,4-0.6,7.1-1.7,9.4c-1.1,2.3-2.8,4.1-5,5.3s-4.6,1.9-7.2,1.9c-4.2,0-7.5-1.4-10.1-4.2C849.4,192.8,848.1,188.8,848.1,183.6z
			 M853.3,183.6c0,4,0.8,6.9,2.5,8.9c1.7,2,3.8,3,6.3,3c2.5,0,4.6-1,6.2-3c1.7-2,2.5-5,2.5-9.1c0-3.8-0.8-6.7-2.5-8.7
			c-1.7-2-3.7-3-6.2-3c-2.5,0-4.6,1-6.3,2.9C854.1,176.7,853.3,179.6,853.3,183.6z"/>
		<path class="st0" d="M883.3,199.1v-6h5.7v6H883.3z"/>
	</g>
	<g>
		<path class="st0" d="M907.9,199.1L892,156.4h5.9l10.7,31c0.9,2.5,1.6,4.8,2.2,7c0.6-2.3,1.4-4.7,2.2-7l11.1-31h5.5l-16.1,42.7
			H907.9z"/>
		<path class="st0" d="M951.4,199.1h-5v-33.4c-1.2,1.2-2.8,2.4-4.8,3.6s-3.7,2.1-5.3,2.7v-5.1c2.8-1.4,5.3-3,7.4-5
			c2.1-2,3.6-3.9,4.5-5.7h3.2V199.1z"/>
		<path class="st0" d="M964.6,162v-5h26.6v4.1c-2.6,2.9-5.2,6.7-7.8,11.5c-2.6,4.8-4.6,9.7-6,14.8c-1,3.6-1.7,7.5-1.9,11.7h-5.2
			c0.1-3.4,0.7-7.4,1.9-12.2s3-9.3,5.2-13.8c2.3-4.4,4.7-8.1,7.2-11.2H964.6z"/>
		<path class="st0" d="M1015.1,199.1h-5v-33.4c-1.2,1.2-2.8,2.4-4.8,3.6s-3.7,2.1-5.3,2.7v-5.1c2.8-1.4,5.3-3,7.4-5
			c2.1-2,3.6-3.9,4.5-5.7h3.2V199.1z"/>
		<path class="st0" d="M1054.5,194v5h-27.1c0-1.3,0.2-2.5,0.6-3.6c0.7-1.9,1.8-3.8,3.3-5.7s3.7-4,6.6-6.5c4.5-3.8,7.5-6.8,9-9
			s2.4-4.3,2.4-6.3c0-2.1-0.7-3.8-2.1-5.3s-3.3-2.1-5.6-2.1c-2.4,0-4.4,0.8-5.8,2.3s-2.2,3.6-2.2,6.3l-5.2-0.6c0.4-4,1.7-7.1,4-9.2
			c2.3-2.1,5.4-3.2,9.3-3.2c3.9,0,7.1,1.1,9.4,3.4c2.3,2.3,3.4,5.1,3.4,8.4c0,1.7-0.3,3.4-1,5s-1.8,3.4-3.3,5.2
			c-1.6,1.8-4.1,4.3-7.8,7.5c-3,2.6-5,4.4-5.8,5.4c-0.9,0.9-1.6,1.9-2.1,2.8H1054.5z"/>
	</g>
	<path class="st0" d="M724.7,115.1c2.8-4.4,5.1-9.2,6.9-14.4h9.2C736.7,106.8,731.2,111.8,724.7,115.1 M711.1,119.4v-18.7h9.9
		C718.6,107.6,715.2,113.9,711.1,119.4L711.1,119.4z M720.9,47.9h-9.7V29.5C715.1,34.9,718.5,41.1,720.9,47.9 M740.7,47.9h-9.2
		c-1.8-5.1-4.2-9.9-6.9-14.2C731,37,736.5,41.9,740.7,47.9 M735.9,69c-0.2-3.6-0.7-7.2-1.5-10.6h11.7c1.2,3.4,2,6.9,2.4,10.6H735.9z
		 M735.9,79.6h12.8c-0.4,3.7-1.2,7.2-2.4,10.6h-11.7C735.2,86.7,735.7,83.2,735.9,79.6 M711.1,69V58.5h12.7c0.7,3.4,1.2,7,1.4,10.6
		H711.1z M725.2,79.6c-0.2,3.6-0.7,7.1-1.3,10.6h-12.7V79.6H725.2z M705.3,17.9c-1.7,0-3.4,0.1-5.1,0.3v9.1v100v3.6
		c1.7,0.2,3.4,0.2,5.1,0.2c30,0,54.4-25.3,54.4-56.6C759.7,43.2,735.4,17.9,705.3,17.9"/>
	<path class="st0" d="M880.9,83.9h-12.4v25.9H879c11.1,0,16.5-5.1,16.5-13.6C895.5,88.8,890.2,83.9,880.9,83.9 M877.8,45.1h-9.3
		v24.4h8.7c7.4,0,12.8-5,12.8-12.8C890.1,50.1,885.7,45.1,877.8,45.1 M880.5,124.2H852V30.6h28.1c18.2,0,26.5,12.9,26.5,24.3
		c0,9-3.6,14.9-10.8,19.5v0.3c10.4,2.4,16.7,10,16.7,21.3C912.5,109.3,903.2,124.2,880.5,124.2"/>
	<polygon class="st0" points="978.8,44.9 954.8,44.9 954.8,124.2 938.1,124.2 938.1,44.9 912.1,44.9 912.1,30.6 984.1,30.6 	"/>
	<path class="st0" d="M805.5,65.2c-1.7-4.7-2.8-8.6-3.4-11.7H802c-0.5,3.3-1.8,7-3.3,11.4l-7.8,21.8h21.9L805.5,65.2z M826.8,124.2
		l-8.9-23.5h-32.1l-8.3,23.5h-16.5l34.8-93.6h12.4l36.1,93.6H826.8z"/>
	<path class="st0" d="M1011.7,65.2c-1.7-4.7-2.7-8.6-3.4-11.7h-0.1c-0.5,3.3-1.8,7-3.3,11.4L997,86.7h21.9L1011.7,65.2z M1033,124.2
		l-8.9-23.5H992l-8.3,23.5h-16.5l34.8-93.6h12.4l36.1,93.6H1033z"/>
	<path class="st0" d="M695.1,84.8v4.3l-26,27.1c-1.5-1.4-2.8-2.8-4.1-4.3L691,84.8H695.1z"/>
	<path class="st0" d="M695.1,69.2h-43.9c-0.2,1.7-0.2,3.5-0.2,5.3c0,1.8,0.1,3.5,0.2,5.3h43.9V69.2z"/>
	<path class="st0" d="M672.5,119.2c6.5,5.2,14.2,8.8,22.6,10.5v-34L672.5,119.2z"/>
	<path class="st0" d="M684.7,84.8H652c1.6,8.7,5.1,16.7,10.1,23.5L684.7,84.8z"/>
	<path class="st0" d="M421.2,100c5.1-4.4,10.1-10.3,13.3-16.5c-4.4-1.4-8.9-2.5-13.3-2.5V100z M417.9,99.8
		c-5.4-4.1-10.3-10.1-13.6-16.3c4.4-1.6,8.9-2.5,13.6-2.5V99.8z M421.2,15.4c5.1,4.1,10.1,10.1,13.3,16.3c-4.4,1.6-8.9,2.5-13.3,2.5
		V15.4z M417.9,15.4c-5.4,4.1-10.3,10.1-13.6,16.3c4.4,1.4,8.9,2.5,13.6,2.5V15.4z M421.2,77.8V59.2h19.9c0,7.3-1.9,14.7-5.1,21.3
		C431.5,78.9,426.1,77.8,421.2,77.8 M464.4,59.2h-20.1c-0.2,8-1.9,15.4-5.1,22.7c4.2,1.8,8.2,4.4,11.9,7.3
		C459.1,81.2,464,70.4,464.4,59.2 M448.6,91.3c-3-2.5-7-5-11-6.7c-3.5,6.7-7.9,12.2-13.6,17C433.1,100.5,441.5,97.3,448.6,91.3
		 M417.9,77.8V59.2h-20.1c0.2,7.3,1.9,14.9,5.1,21.3C407.6,78.9,412.8,77.8,417.9,77.8 M374.4,59.2h20.1c0.2,8,2.1,15.1,5.4,22.7
		c-4.4,1.8-8.4,4.4-12.2,7.3C379.8,81.2,374.9,70.7,374.4,59.2 M390.3,91.3c3.3-2.5,7-5.3,11-6.7c3.5,6.7,7.9,12.2,13.6,17
		C405.8,100.5,397.3,97.3,390.3,91.3 M421.2,37.4V56h19.9c0-7.6-1.9-14.7-5.1-21.6C431.2,36.3,426.1,37.2,421.2,37.4 M464.4,56
		h-20.1c-0.2-8-2.1-15.4-5.1-22.7c4.2-1.8,8.2-4.4,11.9-7.3C459.5,34.4,464,44.8,464.4,56 M448.6,23.7c-3.3,2.7-7,5.3-11,6.9
		c-3.5-6.7-7.9-11.9-13.6-17C433.1,14.5,441.5,17.9,448.6,23.7 M417.9,37.4V56h-20.1c0.2-7.3,1.9-14.7,5.1-21.6
		C407.6,36.3,412.8,37.2,417.9,37.4 M374.4,56h20.1c0.2-8.3,2.1-15.4,5.4-22.7c-4.4-1.8-8.4-4.4-12.2-7.3
		C379.6,34,374.9,44.5,374.4,56 M390.3,23.7c3.3,2.7,7,5.3,11,6.9c3.3-6.7,8.2-12.1,13.6-17C405.8,14.5,397.3,17.9,390.3,23.7
		 M275.5,72.3h89.8c3.3,16.3,14.7,29.8,37.6,39.2c-2.6,7.8-11.5,14.9-20.6,14.9h-48.9c-7.5,0-13.3-6.2-15.7-11.2h49.6
		c3-0.5,3-2.8,0.2-3.2h-48.9c-6.3,0-11.9-5.3-15.2-11h56.6c3-0.5,3-2.8,0-3.2h-57.1c-5.8,0-11-6.7-13.1-11h62.7c3-0.5,3-3.2,0-3.4
		h-63.8C283.7,83.3,279,78,275.5,72.3 M563.4,72.3h-89.8c-3.3,16.3-14.7,29.8-37.7,39.2c2.6,7.8,11.5,14.9,20.6,14.9h48.9
		c7.5,0,13.3-6.2,15.7-11.2h-49.6c-3-0.5-3-2.8-0.2-3.2h48.9c6.3,0,11.9-5.3,15.2-11h-56.6c-3-0.5-3-2.8,0-3.2h57.1
		c5.8,0,11-6.7,13.1-11h-62.7c-3-0.5-3-3.2,0-3.4H550C555.2,83.3,559.9,78,563.4,72.3 M462.1,195.4l28.8-57.8h18.9l11.9,57.8h-18
		l-0.7-6.9h-18.9l-3,6.9H462.1z M488.8,176.6h12.2l-3-21.3L488.8,176.6z M424.5,195.4l6.8-43.3h-16.8l2.8-14.7h51.4l-2.8,14.7H450
		l-6.5,43.3H424.5z M347.3,195.4l29-57.8h18.9l11.7,57.8h-17.5l-1.2-6.9h-18.7l-3,6.9H347.3z M374.2,176.6h12.2l-3.3-21.3
		L374.2,176.6z M316.4,195.4l11.7-57.8h19.2l-11.7,57.8H316.4z"/>
	<path class="st0" d="M148.5,120.2c0,0-21.2-0.3-31.7-21.2c-14.5-29,15.7-44.5,15.7-44.5l26.8,4.8L148.5,120.2z"/>
	<path class="st0" d="M21.8,91.5c-8.8,50.1,24.7,98,74.7,106.9c50,8.8,97.9-24.7,106.8-74.8c1-5.4,1.4-10.8,1.4-16.1
		c0-43.9-31.5-82.9-76.2-90.8C78.6,7.8,30.7,41.4,21.8,91.5 M97.6,192.4c-46.8-8.3-78.2-53.1-69.9-99.9c8.3-46.9,53.1-78.3,99.9-70
		c46.8,8.3,78.2,53.1,69.9,99.9S144.4,200.7,97.6,192.4"/>
	<path class="st0" d="M33.6,127.4c-0.1-0.7-0.2-1.4-0.4-2.1c-0.2-0.7-0.4-1.3-0.7-2l18.7-5.1l1.8,6.7c1,3.8,0.1,6.3-3,7.1
		c-4.9,1.3-6.9-1.9-8.2-6.9L33.6,127.4z M43.3,124.7c0.2,0.6,0.4,1.2,0.7,1.7c1,1.6,2.7,1.9,4.4,1.4c2.2-0.6,3.3-2.1,2.9-3.5
		l-0.5-1.7L43.3,124.7z"/>
	<path class="st0" d="M55.8,133.3l3,5.2c0.7,1.1,1.8,2.9,1.8,4.2c0.1,1.8-0.6,3.2-2.2,4.2c-2.4,1.4-4.8,0.8-6.6-1.2
		c-1.6,2.7-2.9,5.6-4.3,8.4l-1,1.8c-0.4-0.8-0.7-1.5-1.2-2.3c-0.4-0.7-0.9-1.4-1.4-2.1l3.4-5.9c0.4-0.8,1.2-2.1,1.8-3.2l-0.1-0.2
		l-7.8,4.6c-0.3-0.6-0.6-1.3-1-1.9c-0.4-0.6-0.8-1.2-1.2-1.8L55.8,133.3z M50,141.5c1.3,2.7,3.2,3.3,5.7,1.8
		c0.3-0.2,0.7-0.4,1.1-0.8c1.8-1.6,0.5-3.3-0.3-4.8L50,141.5z"/>
	<path class="st0" d="M58.5,168.9c-4.7-4.1-5.5-9.7-1.2-14.5c3.7-4.2,9.8-5,15.1-0.3c6.1,5.3,4.1,11.2,1.2,14.5
		C70,172.8,63.7,173.5,58.5,168.9 M60.3,158.2c-2.4,2.8-3.7,6.8-0.5,9.6c3.3,2.9,7.6,0.9,10.7-2.7c2.4-2.7,3.9-7,0.7-9.8
		C68.2,152.7,64.4,153.4,60.3,158.2"/>
	<path class="st0" d="M82.2,183.2c-0.6-0.3-1.2-0.7-1.9-1c-0.7-0.3-1.3-0.5-2-0.7l6.9-16c-1.8-0.8-3.6-1.3-5-1.7
		c0.2-0.3,0.4-0.7,0.6-1.1c0.2-0.4,0.2-0.8,0.3-1.1l13.4,5.8c-0.2,0.3-0.4,0.7-0.6,1c-0.2,0.4-0.2,0.8-0.3,1.2
		c-1.5-0.8-2.9-1.7-4.5-2.4L82.2,183.2z"/>
	<path class="st0" d="M108.1,169.7c-0.1,0.4-0.3,0.8-0.3,1.2c-0.1,0.4-0.1,0.8-0.1,1.2c-1.7-0.5-3.5-1.1-6.4-1.5l-1,6l2.9,0.5
		c1.3,0.2,2.4,0.3,3.5,0.3c-0.1,0.4-0.3,0.8-0.3,1.2c-0.1,0.4-0.1,0.8-0.1,1.2c-1-0.3-2.1-0.6-3.4-0.8l-2.9-0.5l-1.2,7.1
		c2.9,0.5,4.8,0.6,6.5,0.7c-0.1,0.4-0.3,0.8-0.3,1.2c-0.1,0.4-0.1,0.8-0.1,1.2l-10.6-1.8l3.2-19L108.1,169.7z"/>
	<path class="st0" d="M128.3,184.6l-0.4,2.5c-1.6,1-3.6,1.6-5.5,1.8c-6,0.6-10.9-2.7-11.5-8.5c-0.7-7.4,4-11.2,10.2-11.8
		c1.9-0.2,4.2,0.1,5.9,0.8c-0.2,1-0.2,2-0.4,3l-0.4,0c-1.2-1.4-3.1-2.3-4.9-2.1c-4.7,0.5-6.1,5.1-5.7,9.3c0.5,4.8,3.2,8,7.5,7.5
		c1.7-0.2,3.7-1.3,4.8-2.6L128.3,184.6z"/>
	<path class="st0" d="M144.3,182.6c-0.7,0.2-1.4,0.4-2,0.6c-0.7,0.3-1.3,0.6-1.9,0.9L134,168c-1.9,0.7-3.5,1.6-4.8,2.3
		c-0.1-0.4-0.2-0.8-0.3-1.2c-0.1-0.4-0.4-0.7-0.6-1.1l13.6-5.3c0.1,0.4,0.2,0.8,0.3,1.2c0.2,0.4,0.4,0.7,0.6,1.1
		c-1.6,0.4-3.3,0.8-4.9,1.5L144.3,182.6z"/>
	<path class="st0" d="M153.2,154.8c0.2,0.4,0.4,0.8,0.6,1.1c0.2,0.3,0.5,0.6,0.8,0.9c-1.5,0.8-3.2,1.7-5.6,3.4l3.5,5l2.4-1.7
		c1-0.7,1.9-1.5,2.7-2.2c0.2,0.4,0.4,0.8,0.6,1.1c0.2,0.3,0.5,0.6,0.8,0.9c-0.9,0.5-2,1.1-3,1.8l-2.4,1.7l4.1,5.9
		c2.3-1.7,3.8-2.9,5.1-4.1c0.2,0.4,0.4,0.8,0.6,1.1c0.2,0.3,0.5,0.6,0.8,0.9l-8.8,6.2L144.4,161L153.2,154.8z"/>
	<path class="st0" d="M162,145.1c3.9-4.6,8.8-3.9,12.4-1.1c5,4,5.2,9.8,1.6,14.4l-4.9,6.2l-15.1-12L162,145.1z M172.5,160.3l1.5-1.9
		c2.4-3.1,2.7-6.6-2.5-10.7c-4.2-3.3-7.4-2.6-9.8,0.5l-1.7,2.2L172.5,160.3z"/>
	<path class="st0" d="M82.4,127.2l2.9-3.1l1.6,3.9L82.4,127.2z M87.8,122.4l-4.2-0.7l-8,7.9l3.9,0.7l1.5-1.6l6.6,1.2l0.8,2.1l4,0.7
		L87.8,122.4z M94.9,123.7l-0.3,1.6l5.4,1l-1.3,7.4l3.7,0.7l1.3-7.4l5.3,0.9l0.3-1.6L94.9,123.7z M114.7,134.2
		c-0.8-0.7-1.1-1.6-0.9-2.6c0.2-1,0.8-1.7,1.7-2.1c1-0.4,2.2-0.5,3.7-0.2c1.5,0.3,2.6,0.7,3.4,1.4c0.8,0.7,1.1,1.6,0.9,2.6
		c-0.2,1-0.7,1.7-1.7,2.1c-1,0.4-2.2,0.5-3.7,0.2C116.6,135.4,115.4,134.9,114.7,134.2 M125.1,129.8c-1.2-0.9-3.1-1.6-5.6-2.1
		c-2.5-0.4-4.6-0.4-6,0c-2,0.5-3.1,1.6-3.4,3.2c-0.3,1.6,0.4,3,2.1,4.2c1.2,0.9,3.1,1.6,5.6,2.1c2.6,0.5,4.6,0.4,6,0
		c2-0.5,3.1-1.6,3.4-3.2C127.4,132.4,126.7,131,125.1,129.8 M129.2,139.1l12.6,2.2l0.3-1.6l-8.8-1.6l1.3-7.4l-3.7-0.7L129.2,139.1z
		 M99.1,48.6c-11.1,20.1-11,42,6.7,60.5c17.7,18.5,41.8,15.5,41.8,15.5l-5,27.9L68,139.3L84.4,46L99.1,48.6z"/>
	<path class="st0" d="M101.4,41.5c0.6-0.8,1.6-1.5,3.1-2.1l2.1-0.8c1-0.4,1.6-0.7,2.1-1c0.7-0.5,1-1.1,1.2-1.8
		c0.1-0.8,0-1.6-0.4-2.1c-0.4-0.6-1.1-1-1.9-1.1c-1.2-0.2-2.2,0.1-2.8,1c-0.3,0.5-0.6,1.1-0.8,2l-1.9-0.3c0.2-1.3,0.6-2.3,1.2-3
		c1-1.3,2.6-1.7,4.6-1.4c1.7,0.3,2.8,0.9,3.4,2c0.6,1,0.8,2.1,0.6,3.2c-0.2,1.2-0.8,2.1-1.7,2.8c-0.6,0.4-1.5,0.8-2.8,1.3l-1.5,0.5
		c-0.7,0.3-1.3,0.5-1.7,0.8c-0.8,0.5-1.3,1.1-1.6,1.7l7.9,1.4l-0.3,1.7l-10-1.7C100.3,43.3,100.8,42.3,101.4,41.5"/>
	<path class="st0" d="M121,38.8c0.5-0.4,0.8-0.9,1-1.5c0.1-0.5,0-1.1-0.4-1.6c-0.4-0.5-1-0.9-1.9-1c-0.9-0.1-1.5,0-2,0.4
		c-0.5,0.4-0.8,0.9-0.9,1.5c-0.1,0.7,0,1.3,0.5,1.7c0.4,0.5,1,0.8,1.7,0.9C119.8,39.3,120.5,39.2,121,38.8 M120.2,46
		c0.6-0.4,1-1,1.2-1.9c0.2-0.9,0-1.7-0.5-2.3c-0.5-0.6-1.2-1-2.1-1.1c-0.9-0.2-1.6,0-2.3,0.4c-0.6,0.4-1,1-1.2,1.9
		c-0.1,0.8,0,1.5,0.4,2.1c0.4,0.6,1.1,1,2.2,1.2C118.8,46.5,119.5,46.4,120.2,46 M115.4,38.5c-0.4-0.6-0.6-1.4-0.4-2.2
		c0.2-1.1,0.7-1.9,1.6-2.6c0.9-0.6,2.1-0.8,3.5-0.6c1.4,0.2,2.4,0.8,3.1,1.7c0.7,0.9,0.9,1.8,0.8,2.8c-0.2,0.9-0.5,1.6-1.1,2.1
		c-0.3,0.3-0.8,0.5-1.4,0.7c0.6,0.4,1,0.8,1.3,1.2c0.5,0.8,0.7,1.7,0.5,2.8c-0.2,1.3-0.8,2.3-1.8,3c-1,0.7-2.3,1-3.9,0.7
		c-1.4-0.2-2.5-0.8-3.4-1.8c-0.8-0.9-1.1-2.1-0.9-3.6c0.2-0.9,0.5-1.6,1-2.1c0.5-0.6,1.2-0.9,2.1-1.1
		C116,39.1,115.6,38.8,115.4,38.5"/>
	<path class="st0" d="M133.6,41c0.5-0.4,0.8-0.9,1-1.5c0.1-0.5,0-1.1-0.4-1.6c-0.3-0.5-1-0.9-1.9-1c-0.9-0.2-1.5,0-2,0.4
		c-0.5,0.4-0.8,0.9-0.9,1.5c-0.1,0.7,0,1.3,0.5,1.7c0.4,0.5,1,0.8,1.7,0.9C132.4,41.5,133.1,41.3,133.6,41 M132.7,48.2
		c0.6-0.4,1-1,1.2-1.9c0.2-0.9,0-1.7-0.5-2.3c-0.5-0.6-1.2-1-2.1-1.1c-0.9-0.1-1.6,0-2.3,0.4c-0.6,0.4-1,1-1.2,1.9
		c-0.1,0.8,0,1.5,0.4,2.1c0.4,0.6,1.1,1,2.2,1.2C131.4,48.7,132.1,48.6,132.7,48.2 M128,40.6c-0.4-0.6-0.6-1.4-0.4-2.2
		c0.2-1.1,0.7-1.9,1.7-2.6c0.9-0.6,2.1-0.8,3.5-0.6c1.4,0.2,2.4,0.8,3.1,1.7c0.7,0.9,0.9,1.8,0.7,2.8c-0.2,0.9-0.5,1.6-1.1,2.1
		c-0.3,0.3-0.8,0.5-1.4,0.7c0.6,0.4,1,0.8,1.3,1.2c0.5,0.8,0.7,1.7,0.5,2.8c-0.2,1.3-0.8,2.3-1.8,3c-1,0.7-2.3,1-3.9,0.7
		c-1.4-0.2-2.5-0.8-3.4-1.8c-0.8-0.9-1.1-2.1-0.9-3.6c0.1-0.9,0.5-1.6,1-2.1c0.5-0.6,1.2-0.9,2.1-1.1C128.6,41.3,128.2,41,128,40.6"
		/>
	<path class="st0" d="M140.3,47.7c-0.1,1.1,0.3,1.9,1.1,2.4c0.4,0.3,0.9,0.5,1.5,0.6c1.1,0.2,1.9,0,2.6-0.6c0.6-0.6,1-1.3,1.2-2.2
		c0.2-1,0-1.8-0.5-2.5c-0.5-0.7-1.2-1.1-2.1-1.2c-0.6-0.1-1.2-0.1-1.7,0.1c-0.5,0.2-0.9,0.4-1.3,0.8l-1.6-0.4l2.4-7.6l7.5,1.3
		l-0.3,1.8l-6.2-1.1l-1.3,3.9c0.4-0.2,0.7-0.3,1.1-0.4c0.6-0.1,1.2-0.1,1.9,0c1.3,0.2,2.4,0.9,3.2,1.9c0.8,1,1.1,2.2,0.8,3.5
		c-0.2,1.4-0.9,2.5-1.9,3.4c-1,0.9-2.5,1.2-4.3,0.9c-1.2-0.2-2.2-0.7-3-1.5c-0.8-0.8-1.1-1.9-1-3.3L140.3,47.7z"/>
</g>
</svg>
