<?xml version="1.0" encoding="utf-8"?>
<!-- Generator: Adobe Illustrator 27.1.1, SVG Export Plug-In . SVG Version: 6.00 Build 0)  -->
<svg version="1.1" id="Layer_1" xmlns="http://www.w3.org/2000/svg" xmlns:xlink="http://www.w3.org/1999/xlink" x="0px" y="0px"
	 viewBox="0 0 50 50" style="enable-background:new 0 0 50 50;" xml:space="preserve">
<style type="text/css">
	.st0{fill:#FFFFFF;}
</style>
<g>
	<path class="st0" d="M25.4,47.3c-6.2,0-11.8-2.5-15.9-6.6S2.9,31,2.9,24.8l0,0c0-6.2,2.5-11.8,6.6-15.9c3.9-3.8,9.1-6.3,14.9-6.6
		l0,0h1c6.2,0,11.8,2.5,15.9,6.6s6.6,9.7,6.6,15.9l0,0c0,6.2-2.5,11.8-6.6,15.9C37.2,44.7,31.6,47.3,25.4,47.3L25.4,47.3z
		 M10.6,39.5c3.8,3.8,9,6.1,14.8,6.1s11-2.3,14.8-6.1s6.1-9,6.1-14.8s-2.3-11-6.1-14.8s-9-6.1-14.8-6.1l0,0c-5.8,0-11,2.3-14.8,6.1
		s-6.1,9-6.1,14.8l0,0C4.5,30.5,6.8,35.8,10.6,39.5z"/>
</g>
<path class="st0" d="M30.6,12.4c0.4,3.5,2.3,5.5,5.7,5.7V22c-1.9,0.2-3.6-0.5-5.6-1.6v7.2c0,9.2-10,12.1-14.1,5.5
	c-2.6-4.2-1-11.7,7.3-12v4.1c-0.6,0.1-1.3,0.3-1.9,0.5c-1.9,0.6-2.9,1.8-2.6,3.9c0.6,4,7.8,5.1,7.2-2.6V12.4H30.6z"/>
</svg>
