<?xml version="1.0" encoding="utf-8"?>
<!-- Generator: Adobe Illustrator 26.2.1, SVG Export Plug-In . SVG Version: 6.00 Build 0)  -->
<svg version="1.1" xmlns="http://www.w3.org/2000/svg" xmlns:xlink="http://www.w3.org/1999/xlink" x="0px" y="0px"
	 viewBox="0 0 50 50" style="enable-background:new 0 0 50 50;" xml:space="preserve">
<style type="text/css">
	.st0{display:none;}
	.st1{display:inline;}
	.st2{fill:#FFFFFF;}
</style>
<g id="Layer_1" class="st0">
	<g class="st1">
		<path class="st2" d="M25.39,47.26c-6.21,0-11.84-2.52-15.91-6.59c-4.07-4.07-6.59-9.7-6.59-15.91v0c0-6.21,2.52-11.84,6.59-15.91
			c3.85-3.85,9.09-6.31,14.9-6.57V2.26h1.01c6.21,0,11.84,2.52,15.91,6.59c4.07,4.07,6.59,9.7,6.59,15.91v0
			c0,6.21-2.52,11.84-6.59,15.91C37.22,44.74,31.6,47.26,25.39,47.26L25.39,47.26z M10.59,39.55c3.79,3.79,9.02,6.13,14.79,6.13
			c5.78,0,11.01-2.34,14.79-6.13c3.79-3.79,6.13-9.02,6.13-14.79c0-5.78-2.34-11.01-6.13-14.79c-3.78-3.78-9-6.12-14.77-6.13h-0.02
			c-5.78,0-11.01,2.34-14.79,6.13c-3.79,3.79-6.13,9.02-6.13,14.79v0C4.47,30.54,6.81,35.77,10.59,39.55z"/>
		<path class="st2" d="M31.39,12.88l-3.5-0.08c-1.38-0.03-2.71,0.49-3.7,1.46c-1,0.97-1.54,2.28-1.54,3.67v3.32h-3.25
			c-0.13,0-0.24,0.11-0.24,0.24v4.17c0,0.13,0.11,0.24,0.24,0.24h3.25v10.56c0,0.13,0.11,0.24,0.24,0.24h4.31
			c0.13,0,0.24-0.11,0.24-0.24V25.92h3.28c0.12,0,0.22-0.09,0.24-0.21l0.54-4.18c0.01-0.07-0.01-0.14-0.06-0.19
			c-0.05-0.05-0.11-0.08-0.18-0.08h-3.82l0-2.11c0-0.01-0.09-1.03,0.44-1.61c0.25-0.27,0.58-0.4,1.03-0.4h2.48
			c0.13,0,0.24-0.11,0.24-0.24v-3.77C31.63,12.99,31.52,12.88,31.39,12.88z"/>
	</g>
</g>
<g id="Layer_2">
	<g>
		<path class="st2" d="M25.39,47.26c-6.21,0-11.84-2.52-15.91-6.59c-4.07-4.07-6.59-9.7-6.59-15.91v0c0-6.21,2.52-11.84,6.59-15.91
			c3.85-3.85,9.09-6.31,14.9-6.57V2.26h1.01c6.21,0,11.84,2.52,15.91,6.59c4.07,4.07,6.59,9.7,6.59,15.91v0
			c0,6.21-2.52,11.84-6.59,15.91C37.22,44.74,31.6,47.26,25.39,47.26L25.39,47.26z M10.59,39.55c3.79,3.79,9.02,6.13,14.79,6.13
			c5.78,0,11.01-2.34,14.79-6.13c3.79-3.79,6.13-9.02,6.13-14.79c0-5.78-2.34-11.01-6.13-14.79c-3.78-3.78-9-6.12-14.77-6.13h-0.02
			c-5.78,0-11.01,2.34-14.79,6.13c-3.79,3.79-6.13,9.02-6.13,14.79v0C4.47,30.54,6.81,35.77,10.59,39.55z"/>
		<path class="st2" d="M35.26,17.75c0,0,1.48-1.12,1.96-2.67c0,0-1.98,0.93-3.18,0.94c-0.96-1.2-2.44-1.98-4.1-1.98
			c-2.89,0-5.24,2.35-5.24,5.24c0,0.57,0.1,1.12,0.27,1.64c-0.01,0-0.03,0-0.04,0c-7.76-0.53-10.91-5.51-10.91-5.51
			s-1.91,3.94,1.2,7.04c0,0-0.82,0.1-1.78-0.45c0,0-0.65,3.36,3.58,5.17c0,0-1.18,0.31-1.85,0.2c0,0,0.99,3.13,4.79,3.58
			c0,0-1.58,2-7.11,2.39c0,0,9.14,5.98,18.03-2.1c0,0,3.88-3.28,4.36-9.88l2.64-4.22L35.26,17.75z"/>
	</g>
</g>
</svg>
