<?xml version="1.0" encoding="utf-8"?>
<!-- Generator: Adobe Illustrator 28.0.0, SVG Export Plug-In . SVG Version: 6.00 Build 0)  -->
<svg version="1.1" id="Layer_1" xmlns="http://www.w3.org/2000/svg" xmlns:xlink="http://www.w3.org/1999/xlink" x="0px" y="0px"
	 viewBox="0 0 250 57" style="enable-background:new 0 0 250 57;" xml:space="preserve">
<style type="text/css">
	.st0{fill:#FFFFFF;stroke:#FFFFFF;stroke-width:0.5;stroke-miterlimit:10;}
	.st1{fill:#BD9B60;stroke:#BD9B60;stroke-width:0.5;stroke-miterlimit:10;}
</style>
<g>
	<path class="st0" d="M3.4,21.5c0.7,0,1.8,0,3.4-0.1s2.9-0.1,3.7-0.1c0.1,0.4,0.2,1,0.4,1.7c0.2,0.7,0.3,1.1,0.3,1.3
		c-0.1,0.1-0.2,0.1-0.4,0.1s-0.3-0.1-0.3-0.2c-0.2-0.8-0.5-1.3-0.9-1.6c-0.4-0.2-1-0.4-1.6-0.4H6.5c-1.3,0-1.9,0.1-1.9,0.3
		c-0.1,0.4-0.1,1-0.1,1.9V28c0,0.1,0.3,0.1,1,0.1h1.2c0.4,0,0.7,0,0.9,0s0.4,0,0.6-0.1c0.2-0.1,0.3-0.1,0.4-0.1s0.1-0.1,0.2-0.3
		c0.1-0.2,0.2-0.3,0.2-0.4c0-0.1,0.1-0.3,0.2-0.6c0-0.1,0.1-0.2,0.3-0.2c0.2,0,0.3,0,0.4,0.1v4.2c-0.1,0.1-0.2,0.1-0.4,0.1
		c-0.2,0-0.3-0.1-0.4-0.2c-0.1-0.4-0.2-0.7-0.3-0.9c-0.1-0.2-0.1-0.3-0.2-0.4c0,0-0.1-0.1-0.2-0.2c-0.2-0.1-1-0.2-2.3-0.2
		c-1.1,0-1.6,0.1-1.6,0.2v3.5c0,1,0.1,1.6,0.2,2C4.7,34.9,5.2,35,6.2,35h1.1c1.4,0,2.3-0.1,2.8-0.4c0.2-0.1,0.5-0.4,0.7-0.8
		c0.3-0.4,0.5-0.9,0.7-1.5c0-0.1,0.1-0.1,0.3-0.1c0.3,0,0.5,0.1,0.6,0.1c-0.1,0.2-0.2,0.5-0.4,0.9c-0.2,0.4-0.3,0.8-0.4,1
		c-0.1,0.3-0.2,0.6-0.3,0.9c-0.1,0.3-0.2,0.6-0.2,0.8c-0.8,0-1.9,0-3.6-0.1S4.5,36,3.5,36L0.8,36c-0.1-0.1-0.1-0.2-0.1-0.4
		c0-0.2,0-0.3,0.1-0.3c0.2,0,0.5-0.1,0.9-0.2s0.6-0.2,0.7-0.4c0.1-0.2,0.2-0.9,0.2-2.1v-8.4c0-0.9-0.1-1.5-0.2-1.9
		c-0.1-0.1-0.3-0.2-0.7-0.3c-0.4-0.1-0.7-0.2-0.9-0.2c-0.1,0-0.1-0.1-0.1-0.3c0-0.2,0-0.3,0.1-0.4C1.6,21.4,2.4,21.5,3.4,21.5z"/>
	<path class="st0" d="M20.8,21.5c0.3,0,0.6,0,0.9,0c0.3,0,0.6,0,0.9-0.1c0.3,0,0.6-0.1,0.8-0.1c0,0.1,0.1,0.2,0.1,0.3
		c0,0.2,0,0.3-0.1,0.3c-0.2,0-0.4,0.1-0.8,0.2c-0.4,0.1-0.6,0.2-0.6,0.3c-0.1,0.5-0.2,1.2-0.2,2.1v8.4c0,0.8,0.1,1.4,0.2,1.9
		c0.1,0.2,0.6,0.2,1.5,0.2h1.1c1.4,0,2.3-0.1,2.8-0.4c0.2-0.1,0.5-0.4,0.7-0.8c0.3-0.4,0.5-0.9,0.7-1.5c0-0.1,0.1-0.1,0.3-0.1
		c0.3,0,0.5,0.1,0.6,0.1c-0.1,0.2-0.2,0.5-0.4,0.9c-0.2,0.4-0.3,0.8-0.4,1c-0.1,0.3-0.2,0.6-0.3,0.9c-0.1,0.3-0.2,0.6-0.2,0.8
		c-0.8,0-2,0-3.6-0.1c-1.6-0.1-2.9-0.1-3.9-0.1L18.1,36C18,35.9,18,35.8,18,35.6s0-0.3,0.1-0.3c0.2,0,0.5-0.1,0.9-0.1
		c0.4-0.1,0.6-0.2,0.7-0.3c0.1-0.2,0.2-0.9,0.2-2.1v-8.4c0-1-0.1-1.6-0.2-2c-0.1-0.1-0.3-0.2-0.6-0.3C18.6,22,18.3,22,18.1,22
		C18,22,18,21.9,18,21.7s0-0.3,0.1-0.4c0.2,0,0.6,0.1,1.2,0.1C19.9,21.4,20.4,21.5,20.8,21.5z"/>
	<path class="st0" d="M37.7,21.5c0.7,0,1.8,0,3.4-0.1c1.6-0.1,2.9-0.1,3.7-0.1c0.1,0.4,0.2,1,0.4,1.7c0.2,0.7,0.3,1.1,0.3,1.3
		c-0.1,0.1-0.2,0.1-0.4,0.1s-0.3-0.1-0.3-0.2c-0.2-0.8-0.5-1.3-0.9-1.6c-0.4-0.2-1-0.4-1.6-0.4h-1.5c-1.3,0-1.9,0.1-1.9,0.3
		c-0.1,0.4-0.1,1-0.1,1.9V28c0,0.1,0.3,0.1,1,0.1h1.2c0.4,0,0.7,0,0.9,0c0.2,0,0.4,0,0.6-0.1c0.2-0.1,0.3-0.1,0.4-0.1
		c0.1,0,0.1-0.1,0.2-0.3s0.2-0.3,0.2-0.4s0.1-0.3,0.2-0.6c0-0.1,0.1-0.2,0.3-0.2c0.2,0,0.3,0,0.4,0.1v4.2c-0.1,0.1-0.2,0.1-0.4,0.1
		c-0.2,0-0.3-0.1-0.4-0.2c-0.1-0.4-0.2-0.7-0.3-0.9c-0.1-0.2-0.1-0.3-0.2-0.4c0,0-0.1-0.1-0.2-0.2c-0.2-0.1-1-0.2-2.3-0.2
		c-1.1,0-1.6,0.1-1.6,0.2v3.5c0,1,0.1,1.6,0.2,2c0.1,0.2,0.6,0.2,1.5,0.2h1.1c1.4,0,2.3-0.1,2.8-0.4c0.2-0.1,0.5-0.4,0.7-0.8
		c0.3-0.4,0.5-0.9,0.7-1.5c0-0.1,0.1-0.1,0.3-0.1c0.3,0,0.5,0.1,0.6,0.1c-0.1,0.2-0.2,0.5-0.4,0.9c-0.2,0.4-0.3,0.8-0.4,1
		c-0.1,0.3-0.2,0.6-0.3,0.9c-0.1,0.3-0.2,0.6-0.2,0.8c-0.8,0-1.9,0-3.6-0.1c-1.6,0-2.9-0.1-4-0.1L35.1,36C35.1,36,35,35.9,35,35.7
		s0-0.3,0.1-0.3c0.2,0,0.5-0.1,0.9-0.2c0.4-0.1,0.6-0.2,0.7-0.4c0.1-0.2,0.2-0.9,0.2-2.1v-8.4c0-0.9-0.1-1.5-0.2-1.9
		c-0.1-0.1-0.3-0.2-0.7-0.3c-0.4-0.1-0.7-0.2-0.9-0.2c-0.1,0-0.1-0.1-0.1-0.3c0-0.2,0-0.3,0.1-0.4C35.8,21.4,36.7,21.5,37.7,21.5z"
		/>
	<path class="st0" d="M51.9,28.9c0-2.1,0.7-3.9,2.1-5.4c1.4-1.5,3.1-2.2,5.2-2.2c1.1,0,2.8,0.3,5.3,1c0.1,1.7,0.1,2.6,0.1,2.7
		c0,0.2-0.2,0.3-0.5,0.3c-0.2,0-0.3,0-0.3-0.1c-0.4-2-1.9-3-4.5-3c-1.5,0-2.7,0.6-3.7,1.9s-1.5,2.8-1.5,4.5c0,1.6,0.6,3.1,1.6,4.5
		c1.1,1.4,2.4,2.1,4.1,2.1c1.3,0,2.3-0.2,2.9-0.5c0.1-0.1,0.2-0.2,0.2-0.3l0-1.8v-0.2c0-1-0.1-1.6-0.2-1.9c-0.1-0.2-0.3-0.3-0.7-0.4
		C61.5,30,61.2,30,61,30c-0.1,0-0.1-0.1-0.1-0.3c0-0.2,0-0.3,0.1-0.4c1.9,0.1,2.9,0.1,2.9,0.1c0.1,0,0.9,0,2.4-0.1
		c0,0.1,0.1,0.2,0.1,0.3c0,0.2,0,0.3-0.1,0.3c-0.1,0-0.3,0.1-0.6,0.2c-0.3,0.1-0.6,0.2-0.7,0.3c-0.2,0.1-0.2,0.6-0.2,1.5
		c0,0.3,0,0.7,0,1c0,0.4,0,0.6,0,0.6c0,0.3,0.1,0.5,0.2,0.8c0.1,0.3,0.2,0.4,0.2,0.5c0,0.1-0.2,0.3-0.6,0.4c0,0-0.2,0.1-0.4,0.2
		c-0.3,0.1-0.4,0.2-0.5,0.2c-0.1,0-0.3,0.1-0.5,0.2c-0.3,0.1-0.5,0.1-0.6,0.2c-0.2,0-0.4,0.1-0.7,0.1C61.5,36,61.2,36,60.9,36
		s-0.6,0.1-0.9,0.1c-0.4,0-0.7,0-1.1,0c-1.9,0-3.6-0.7-5-2.1C52.6,32.5,51.9,30.8,51.9,28.9z"/>
	<path class="st0" d="M78.6,21.4L83,33.1c0.3,0.7,0.5,1.2,0.7,1.6c0.1,0.2,0.3,0.4,0.7,0.6c0.4,0.2,0.7,0.2,0.8,0.2
		c0.1,0,0.1,0.2,0.1,0.4c0,0.1,0,0.1-0.1,0.2c-1.5-0.1-2.3-0.1-2.4-0.1c0,0-0.9,0-2.6,0.1c-0.1-0.1-0.1-0.2-0.1-0.4
		c0-0.2,0.1-0.3,0.1-0.3c0.2,0,0.4,0,0.7-0.1s0.4-0.2,0.5-0.3c0-0.1,0.1-0.2,0.1-0.4c0-0.2,0-0.4-0.1-0.7s-0.1-0.5-0.2-0.6L81,33.1
		l-0.9-2.5c-0.1-0.1-0.1-0.1-0.1-0.1c-0.6-0.1-1.1-0.1-1.7-0.1c-0.8,0-1.7,0-2.8,0.1l-0.1,0.1l-1,2.4c-0.3,0.7-0.4,1.3-0.4,1.5
		c0,0.2,0.1,0.4,0.2,0.5s0.4,0.2,0.7,0.3s0.5,0.1,0.7,0.1c0.1,0,0.1,0.1,0.1,0.3c0,0.2,0,0.3,0,0.4C74.1,36,73.4,36,73.3,36
		c-0.3,0-0.6,0-0.8,0c-0.2,0-0.5,0-0.7,0.1c-0.3,0-0.5,0-0.8,0.1c-0.1-0.1-0.1-0.2-0.1-0.3c0-0.2,0-0.3,0.1-0.3c0.2,0,0.4,0,0.7-0.1
		s0.5-0.2,0.6-0.3c0.3-0.4,0.7-1.1,1-2.1l3.8-9.9c0-0.1,0.1-0.2,0.1-0.4c0.1-0.2,0.1-0.3,0.1-0.4c0-0.1,0.1-0.2,0.1-0.3
		c0.1-0.1,0.1-0.2,0.2-0.3c0.1-0.1,0.1-0.1,0.2-0.2c0.1-0.1,0.2-0.1,0.2-0.2c0.1,0,0.2-0.1,0.3-0.1L78.6,21.4z M76,29.4
		c0.8,0,1.3,0.1,1.6,0.1c0.7,0,1.3,0,2-0.1l0.1-0.1l-1.8-4.9L76,29.4C75.9,29.3,75.9,29.4,76,29.4z"/>
	<path class="st0" d="M102.3,24.4c0-0.9-0.1-1.6-0.2-1.9c-0.1-0.1-0.3-0.2-0.8-0.4c-0.5-0.1-0.8-0.2-1-0.2c-0.1,0-0.1-0.1-0.1-0.3
		c0-0.2,0-0.3,0.1-0.4c0.2,0,0.6,0.1,1.2,0.1s1.1,0.1,1.5,0.1c0.4,0,0.9,0,1.5-0.1c0.6-0.1,0.9-0.1,1-0.1c0,0.1,0.1,0.2,0.1,0.3
		c0,0.2,0,0.3-0.1,0.3c-0.2,0-0.5,0.1-1,0.2c-0.5,0.1-0.8,0.2-0.8,0.3c-0.1,0.5-0.2,1.1-0.2,2.1v8.4c0,0.9,0,1.9,0.1,3.1
		c-0.1,0.1-0.2,0.1-0.4,0.1c-0.3,0-0.5-0.2-0.7-0.5l-8.6-12.2v9.5c0,1,0.1,1.7,0.2,2.1c0,0.1,0.3,0.2,0.7,0.3
		c0.5,0.1,0.8,0.2,0.9,0.2c0.1,0,0.1,0.1,0.1,0.3s0,0.3,0,0.4c-1.5-0.1-2.3-0.1-2.5-0.1L90.7,36c-0.1-0.1-0.1-0.2-0.1-0.3
		c0-0.2,0-0.3,0.1-0.3c0.2,0,0.6-0.1,1-0.2s0.7-0.2,0.8-0.4c0.2-0.4,0.2-1.1,0.2-2.1v-8.7c0-0.7-0.1-1.3-0.2-1.7
		c-0.1-0.1-0.3-0.2-0.8-0.3C91.3,22,91,22,90.8,22c-0.1,0-0.1-0.1-0.1-0.3s0-0.3,0.1-0.4c1.2,0,1.9,0.1,2.3,0.1c0.8,0,1.4,0,1.8-0.1
		c0.6,1,3,4.6,7.5,10.8c0.1-0.3,0.1-0.6,0.1-0.9L102.3,24.4L102.3,24.4z"/>
	<path class="st0" d="M115.4,21.4c1,0,1.8,0.1,2.5,0.1c0.7,0,1.5,0,2.5-0.1c1,0,1.8-0.1,2.4-0.1c0.4,0,0.9-0.1,1.5-0.3l0.4,3.2
		c-0.1,0.1-0.3,0.2-0.5,0.2c-0.1,0-0.2,0-0.2-0.1c-0.2-0.8-0.5-1.4-0.8-1.6c-0.3-0.3-0.9-0.4-1.7-0.4c-1.6,0-2.4,0.1-2.4,0.3
		c-0.1,0.5-0.2,1.2-0.2,2.2v8c0,0.9,0.1,1.5,0.2,2.1c0,0.1,0.2,0.2,0.6,0.3c0.4,0.1,0.7,0.2,0.8,0.2c0.1,0,0.1,0.1,0.1,0.3
		c0,0.1,0,0.2-0.1,0.3c-1.5-0.1-2.3-0.1-2.6-0.1c-0.1,0-1,0-2.7,0.1c-0.1-0.1-0.1-0.2-0.1-0.3c0-0.2,0-0.3,0.1-0.3
		c0.2,0,0.5-0.1,0.9-0.1c0.4-0.1,0.6-0.2,0.6-0.3c0.1-0.4,0.2-1.1,0.2-2v-8c0-1.3-0.1-2-0.2-2.3c-0.1-0.2-0.9-0.3-2.4-0.3
		c-0.8,0-1.4,0.1-1.7,0.4c-0.3,0.3-0.6,0.8-0.8,1.6c0,0.1-0.1,0.1-0.2,0.1c-0.3,0-0.4-0.1-0.5-0.2l0.4-3.2c0.7,0.2,1.2,0.3,1.5,0.3
		C113.6,21.4,114.4,21.4,115.4,21.4z"/>
</g>
<g>
	<path class="st1" d="M152.9,35.9h-1.8l-1.8-4.9c-0.2-0.6-0.5-1-0.9-1.2c-0.4-0.2-0.9-0.3-1.7-0.3h-3.6v6.4h-1.7V21.3h5.8
		c1.6,0,2.8,0.4,3.6,1.1c0.8,0.7,1.3,1.7,1.3,3c0,1-0.3,1.8-0.8,2.4s-1.2,1.1-2.2,1.4c0.4,0.1,0.8,0.3,1.1,0.6
		c0.3,0.3,0.6,0.7,0.8,1.3L152.9,35.9z M147.1,28.1c2.2,0,3.4-0.9,3.4-2.7c0-0.9-0.3-1.6-0.8-2c-0.5-0.5-1.4-0.7-2.5-0.7h-4v5.4
		H147.1z"/>
	<path class="st1" d="M158.2,35.9V21.3h9.2v1.4h-7.5v5.1h7.1v1.4h-7.1v5.3h7.5v1.4H158.2z"/>
	<path class="st1" d="M172.8,34.2l0.6-1.3c0.7,0.6,1.5,1.1,2.2,1.3c0.8,0.3,1.6,0.4,2.6,0.4c1.2,0,2.1-0.2,2.7-0.7s1-1.1,1-1.9
		c0-0.5-0.2-0.9-0.5-1.2c-0.3-0.3-0.7-0.6-1.2-0.7c-0.5-0.2-1.2-0.4-2-0.6c-1.1-0.3-2-0.5-2.8-0.8c-0.7-0.3-1.3-0.7-1.8-1.2
		c-0.5-0.5-0.7-1.3-0.7-2.1c0-0.8,0.2-1.6,0.7-2.2c0.4-0.6,1.1-1.1,1.9-1.5c0.8-0.4,1.7-0.5,2.8-0.5c1,0,2,0.2,2.8,0.5
		c0.9,0.3,1.6,0.8,2.2,1.4l-0.7,1.3c-0.7-0.6-1.4-1-2.1-1.3c-0.7-0.3-1.5-0.4-2.3-0.4c-1.1,0-2,0.3-2.7,0.7s-1,1.2-1,2
		c0,0.7,0.3,1.3,0.8,1.7s1.4,0.7,2.6,1c1.3,0.3,2.2,0.6,3,0.8c0.7,0.3,1.3,0.6,1.8,1.2c0.5,0.5,0.7,1.2,0.7,2c0,0.8-0.2,1.5-0.7,2.2
		c-0.4,0.6-1.1,1.1-1.9,1.4c-0.8,0.4-1.8,0.5-2.9,0.5C176,36.1,174.2,35.5,172.8,34.2z"/>
	<path class="st1" d="M191.2,35.2c-1-0.6-1.8-1.5-2.3-2.6c-0.5-1.1-0.8-2.4-0.8-4c0-1.5,0.3-2.8,0.8-4c0.5-1.1,1.3-2,2.3-2.6
		c1-0.6,2.2-0.9,3.5-0.9c1.4,0,2.5,0.3,3.5,0.9c1,0.6,1.8,1.5,2.3,2.6s0.8,2.4,0.8,3.9c0,1.5-0.3,2.8-0.8,4c-0.5,1.1-1.3,2-2.3,2.6
		c-1,0.6-2.2,0.9-3.5,0.9C193.4,36.1,192.2,35.8,191.2,35.2z M198.3,33.1c0.9-1.1,1.3-2.5,1.3-4.5s-0.4-3.4-1.3-4.5
		c-0.9-1-2.1-1.6-3.6-1.6c-1.6,0-2.8,0.5-3.6,1.6c-0.9,1.1-1.3,2.5-1.3,4.4c0,1.9,0.4,3.4,1.3,4.5c0.9,1.1,2.1,1.6,3.6,1.6
		C196.3,34.6,197.5,34.1,198.3,33.1z"/>
	<path class="st1" d="M218.2,35.9h-1.8l-1.8-4.9c-0.2-0.6-0.5-1-0.9-1.2c-0.4-0.2-0.9-0.3-1.7-0.3h-3.6v6.4h-1.7V21.3h5.8
		c1.6,0,2.8,0.4,3.6,1.1c0.8,0.7,1.3,1.7,1.3,3c0,1-0.3,1.8-0.8,2.4s-1.2,1.1-2.2,1.4c0.4,0.1,0.8,0.3,1.1,0.6
		c0.3,0.3,0.6,0.7,0.8,1.3L218.2,35.9z M212.4,28.1c2.2,0,3.4-0.9,3.4-2.7c0-0.9-0.3-1.6-0.8-2c-0.6-0.4-1.4-0.7-2.5-0.7h-4v5.4
		L212.4,28.1L212.4,28.1z"/>
	<path class="st1" d="M227.6,35.9V22.8h-5.1v-1.4h11.8v1.4h-5.1v13.2L227.6,35.9L227.6,35.9L227.6,35.9z"/>
	<path class="st1" d="M238.9,34.2l0.6-1.3c0.7,0.6,1.5,1.1,2.2,1.3c0.8,0.3,1.6,0.4,2.6,0.4c1.2,0,2.1-0.2,2.7-0.7s1-1.1,1-1.9
		c0-0.5-0.2-0.9-0.5-1.2c-0.3-0.3-0.7-0.6-1.2-0.7c-0.5-0.2-1.2-0.4-2-0.6c-1.1-0.3-2-0.5-2.8-0.8c-0.7-0.3-1.3-0.7-1.8-1.2
		c-0.5-0.5-0.7-1.3-0.7-2.1c0-0.8,0.2-1.6,0.7-2.2c0.4-0.6,1.1-1.1,1.9-1.5c0.8-0.4,1.7-0.5,2.8-0.5c1,0,2,0.2,2.8,0.5
		c0.9,0.3,1.6,0.8,2.2,1.4l-0.7,1.3c-0.7-0.6-1.4-1-2.1-1.3c-0.7-0.3-1.5-0.4-2.3-0.4c-1.1,0-2,0.3-2.7,0.7s-1,1.2-1,2
		c0,0.7,0.3,1.3,0.8,1.7s1.4,0.7,2.6,1c1.3,0.3,2.2,0.6,3,0.8c0.7,0.3,1.3,0.6,1.8,1.2c0.5,0.5,0.7,1.2,0.7,2c0,0.8-0.2,1.5-0.7,2.2
		s-1.1,1.1-1.9,1.4c-0.8,0.4-1.8,0.5-2.9,0.5C242,36.1,240.2,35.5,238.9,34.2z"/>
</g>
<rect x="132.9" y="12" class="st0" width="0.5" height="33.2"/>
</svg>
